<svg id="visual" viewBox="0 0 675 900" width="675" height="900" xmlns="http://www.w3.org/2000/svg" xmlns:xlink="http://www.w3.org/1999/xlink" version="1.1"><rect x="0" y="0" width="675" height="900" fill="#001220"></rect><defs><linearGradient id="grad1_0" x1="0%" y1="0%" x2="100%" y2="100%"><stop offset="30%" stop-color="#001220" stop-opacity="1"></stop><stop offset="70%" stop-color="#001220" stop-opacity="1"></stop></linearGradient></defs><defs><linearGradient id="grad2_0" x1="0%" y1="0%" x2="100%" y2="100%"><stop offset="30%" stop-color="#001220" stop-opacity="1"></stop><stop offset="70%" stop-color="#001220" stop-opacity="1"></stop></linearGradient></defs><g transform="translate(675, 0)"><path d="M0 506.3C-57.5 486.7 -114.9 467.1 -186 449C-257 430.9 -341.7 414.4 -358 358C-374.2 301.5 -322.1 205.2 -335.4 138.9C-348.7 72.6 -427.5 36.3 -506.2 0L0 0Z" fill="#9de439"></path></g><g transform="translate(0, 900)"><path d="M0 -506.2C84 -518.2 167.9 -530.2 193.7 -467.7C219.5 -405.3 187.2 -268.4 211.4 -211.4C235.7 -154.4 316.5 -177.3 375.1 -155.4C433.7 -133.4 470 -66.7 506.3 0L0 0Z" fill="#9de439"></path></g></svg>