<svg id="visual" viewBox="0 0 900 600" width="900" height="600" xmlns="http://www.w3.org/2000/svg" xmlns:xlink="http://www.w3.org/1999/xlink" version="1.1"><rect x="0" y="0" width="900" height="600" fill="#001220"></rect><defs><linearGradient id="grad1_0" x1="33.3%" y1="0%" x2="100%" y2="100%"><stop offset="20%" stop-color="#001220" stop-opacity="1"></stop><stop offset="80%" stop-color="#001220" stop-opacity="1"></stop></linearGradient></defs><defs><linearGradient id="grad2_0" x1="0%" y1="0%" x2="66.7%" y2="100%"><stop offset="20%" stop-color="#001220" stop-opacity="1"></stop><stop offset="80%" stop-color="#001220" stop-opacity="1"></stop></linearGradient></defs><g transform="translate(900, 0)"><path d="M0 405.6C-25.1 346.4 -50.2 287.1 -91.5 281.5C-132.7 275.9 -190.1 324 -236.9 326C-283.7 328.1 -319.8 284 -328.2 238.4C-336.5 192.8 -317 145.7 -325.3 105.7C-333.5 65.7 -369.6 32.8 -405.6 0L0 0Z" fill="#7CB728"></path></g><g transform="translate(0, 600)"><path d="M0 -405.6C18.6 -333.8 37.3 -262 85.3 -262.5C133.3 -263 210.8 -335.9 238.4 -328.2C266.1 -320.4 244 -232 255.6 -185.7C267.3 -139.5 312.7 -135.5 343.3 -111.6C374 -87.6 389.8 -43.8 405.6 0L0 0Z" fill="#7CB728"></path></g></svg>