<svg xmlns:xlink="http://www.w3.org/1999/xlink" width="907" xmlns="http://www.w3.org/2000/svg" id="screenshot" version="1.1" viewBox="0 0 907 668" height="668" style="-webkit-print-color-adjust: exact;"><g id="shape-342383f0-7247-11ec-b3d3-eddc8990f2cb" width="900" height="600" xmlns:xlink="http://www.w3.org/1999/xlink" version="1.1"><g id="shape-3423d210-7247-11ec-b3d3-eddc8990f2cb"><g id="shape-34246e50-7247-11ec-b3d3-eddc8990f2cb"><ellipse cx="217" cy="550" rx="118" ry="118" transform="matrix(0.9999999999999999,1.7453292519943295e-8,-1.7453292519943295e-8,0.9999999999999999,0.000009599310914154557,-0.000003787364335039456)" style="fill: rgb(63, 210, 71); fill-opacity: 0.31;"/></g><g id="shape-34249560-7247-11ec-b3d3-eddc8990f2cb"><ellipse cx="610" cy="570" rx="30" ry="30" transform="matrix(0.9999999999999999,1.7453292519943295e-8,-1.7453292519943295e-8,0.9999999999999999,0.00000994837682810612,-0.000010646508371792152)" style="fill: rgb(63, 210, 71); fill-opacity: 0.31;"/></g><g id="shape-3424bc70-7247-11ec-b3d3-eddc8990f2cb"><ellipse cx="809" cy="243" rx="48" ry="48" transform="matrix(1,0,0,1,0,0)" style="fill: rgb(63, 210, 71); fill-opacity: 0.31;"/></g><g id="shape-3424e380-7247-11ec-b3d3-eddc8990f2cb"><ellipse cx="253" cy="195" rx="44" ry="44" transform="matrix(1,0,0,1,0,0)" style="fill: rgb(63, 210, 71); fill-opacity: 0.31;"/></g><g id="shape-34250a90-7247-11ec-b3d3-eddc8990f2cb"><ellipse cx="480" cy="331" rx="32" ry="32" transform="matrix(0.9999999999999999,1.7453292519943295e-8,-1.7453292519943295e-8,0.9999999999999999,0.000005777039859822253,-0.00000837758034322178)" style="fill: rgb(63, 210, 71); fill-opacity: 0.31;"/></g><g id="shape-342531a0-7247-11ec-b3d3-eddc8990f2cb"><ellipse cx="878" cy="498" rx="29" ry="29" transform="matrix(1,0,0,1,0,0)" style="fill: rgb(63, 210, 71); fill-opacity: 0.31;"/></g><g id="shape-342558b0-7247-11ec-b3d3-eddc8990f2cb"><ellipse cx="669" cy="46" rx="46" ry="46" transform="matrix(1,0,0,1,0,0)" style="fill: rgb(63, 210, 71); fill-opacity: 0.31;"/></g><g id="shape-3425a6d0-7247-11ec-b3d3-eddc8990f2cb"><ellipse cx="46" cy="60" rx="46" ry="46" transform="matrix(1,0,0,1,0,0)" style="fill: rgb(63, 210, 71); fill-opacity: 0.31;"/></g></g></g></svg>