<svg id="visual" viewBox="0 0 900 600" width="900" height="600" xmlns="http://www.w3.org/2000/svg" xmlns:xlink="http://www.w3.org/1999/xlink" version="1.1"><rect x="0" y="0" width="900" height="600" fill="#ffffff"></rect><path d="M0 354L21.5 348.2C43 342.3 86 330.7 128.8 325.8C171.7 321 214.3 323 257.2 309C300 295 343 265 385.8 252.2C428.7 239.3 471.3 243.7 514.2 240C557 236.3 600 224.7 642.8 243C685.7 261.3 728.3 309.7 771.2 334.7C814 359.7 857 361.3 878.5 362.2L900 363L900 601L878.5 601C857 601 814 601 771.2 601C728.3 601 685.7 601 642.8 601C600 601 557 601 514.2 601C471.3 601 428.7 601 385.8 601C343 601 300 601 257.2 601C214.3 601 171.7 601 128.8 601C86 601 43 601 21.5 601L0 601Z" fill="#7cb728"></path><path d="M0 299L21.5 297.8C43 296.7 86 294.3 128.8 312.3C171.7 330.3 214.3 368.7 257.2 390.2C300 411.7 343 416.3 385.8 408.3C428.7 400.3 471.3 379.7 514.2 377.8C557 376 600 393 642.8 388.5C685.7 384 728.3 358 771.2 338.8C814 319.7 857 307.3 878.5 301.2L900 295L900 601L878.5 601C857 601 814 601 771.2 601C728.3 601 685.7 601 642.8 601C600 601 557 601 514.2 601C471.3 601 428.7 601 385.8 601C343 601 300 601 257.2 601C214.3 601 171.7 601 128.8 601C86 601 43 601 21.5 601L0 601Z" fill="#87c62d"></path><path d="M0 426L21.5 430.3C43 434.7 86 443.3 128.8 434.7C171.7 426 214.3 400 257.2 405.8C300 411.7 343 449.3 385.8 468.2C428.7 487 471.3 487 514.2 485C557 483 600 479 642.8 470.7C685.7 462.3 728.3 449.7 771.2 447C814 444.3 857 451.7 878.5 455.3L900 459L900 601L878.5 601C857 601 814 601 771.2 601C728.3 601 685.7 601 642.8 601C600 601 557 601 514.2 601C471.3 601 428.7 601 385.8 601C343 601 300 601 257.2 601C214.3 601 171.7 601 128.8 601C86 601 43 601 21.5 601L0 601Z" fill="#92d533"></path><path d="M0 469L21.5 476.2C43 483.3 86 497.7 128.8 497.3C171.7 497 214.3 482 257.2 472.7C300 463.3 343 459.7 385.8 462.7C428.7 465.7 471.3 475.3 514.2 486.7C557 498 600 511 642.8 511.2C685.7 511.3 728.3 498.7 771.2 501.3C814 504 857 522 878.5 531L900 540L900 601L878.5 601C857 601 814 601 771.2 601C728.3 601 685.7 601 642.8 601C600 601 557 601 514.2 601C471.3 601 428.7 601 385.8 601C343 601 300 601 257.2 601C214.3 601 171.7 601 128.8 601C86 601 43 601 21.5 601L0 601Z" fill="#9de439"></path></svg>