<?xml version="1.0" encoding="UTF-8"?>
<svg xmlns="http://www.w3.org/2000/svg" xmlns:xlink="http://www.w3.org/1999/xlink" viewBox="0 0 30 30" width="30px" height="30px">
<g id="surface30999787">
<path style=" stroke:none;fill-rule:nonzero;fill:rgb(48.627451%,71.764708%,15.686275%);fill-opacity:1;" d="M 24 3 C 22.34375 3 21 4.34375 21 6 C 21 6.507812 21.128906 7.003906 21.375 7.449219 L 15.550781 14 L 8.824219 14 C 8.402344 12.800781 7.269531 12 6 12 C 4.34375 12 3 13.34375 3 15 C 3 16.65625 4.34375 18 6 18 C 7.269531 18 8.402344 17.195312 8.824219 16 L 15.550781 16 L 21.371094 22.550781 C 21.128906 22.996094 21 23.492188 21 24 C 21 25.65625 22.34375 27 24 27 C 25.65625 27 27 25.65625 27 24 C 27 22.34375 25.65625 21 24 21 C 23.613281 21 23.226562 21.074219 22.867188 21.222656 L 17.335938 15 L 22.867188 8.777344 C 23.226562 8.925781 23.613281 9 24 9 C 25.65625 9 27 7.65625 27 6 C 27 4.34375 25.65625 3 24 3 Z M 24 3 "/>
</g>
</svg>
