<svg id="visual" viewBox="0 0 900 600" width="900" height="600" xmlns="http://www.w3.org/2000/svg" xmlns:xlink="http://www.w3.org/1999/xlink" version="1.1"><path d="M0 97L45 97L45 115L90 115L90 169L135 169L135 169L180 169L180 193L225 193L225 217L270 217L270 151L315 151L315 139L360 139L360 103L405 103L405 199L450 199L450 187L495 187L495 271L540 271L540 217L585 217L585 115L630 115L630 115L675 115L675 139L720 139L720 235L765 235L765 127L810 127L810 163L855 163L855 235L900 235L900 169L900 0L900 0L855 0L855 0L810 0L810 0L765 0L765 0L720 0L720 0L675 0L675 0L630 0L630 0L585 0L585 0L540 0L540 0L495 0L495 0L450 0L450 0L405 0L405 0L360 0L360 0L315 0L315 0L270 0L270 0L225 0L225 0L180 0L180 0L135 0L135 0L90 0L90 0L45 0L45 0L0 0Z" fill="#7cb728"></path><path d="M0 169L45 169L45 181L90 181L90 217L135 217L135 217L180 217L180 277L225 277L225 283L270 283L270 253L315 253L315 193L360 193L360 139L405 139L405 283L450 283L450 235L495 235L495 343L540 343L540 295L585 295L585 187L630 187L630 199L675 199L675 241L720 241L720 307L765 307L765 199L810 199L810 253L855 253L855 289L900 289L900 229L900 167L900 233L855 233L855 161L810 161L810 125L765 125L765 233L720 233L720 137L675 137L675 113L630 113L630 113L585 113L585 215L540 215L540 269L495 269L495 185L450 185L450 197L405 197L405 101L360 101L360 137L315 137L315 149L270 149L270 215L225 215L225 191L180 191L180 167L135 167L135 167L90 167L90 113L45 113L45 95L0 95Z" fill="#009465"></path><path d="M0 229L45 229L45 265L90 265L90 337L135 337L135 301L180 301L180 337L225 337L225 397L270 397L270 361L315 361L315 301L360 301L360 271L405 271L405 427L450 427L450 301L495 301L495 403L540 403L540 439L585 439L585 265L630 265L630 343L675 343L675 373L720 373L720 367L765 367L765 253L810 253L810 355L855 355L855 367L900 367L900 289L900 227L900 287L855 287L855 251L810 251L810 197L765 197L765 305L720 305L720 239L675 239L675 197L630 197L630 185L585 185L585 293L540 293L540 341L495 341L495 233L450 233L450 281L405 281L405 137L360 137L360 191L315 191L315 251L270 251L270 281L225 281L225 275L180 275L180 215L135 215L135 215L90 215L90 179L45 179L45 167L0 167Z" fill="#00696c"></path><path d="M0 511L45 511L45 541L90 541L90 475L135 475L135 493L180 493L180 541L225 541L225 481L270 481L270 565L315 565L315 475L360 475L360 475L405 475L405 529L450 529L450 487L495 487L495 505L540 505L540 523L585 523L585 559L630 559L630 493L675 493L675 523L720 523L720 535L765 535L765 529L810 529L810 493L855 493L855 487L900 487L900 511L900 287L900 365L855 365L855 353L810 353L810 251L765 251L765 365L720 365L720 371L675 371L675 341L630 341L630 263L585 263L585 437L540 437L540 401L495 401L495 299L450 299L450 425L405 425L405 269L360 269L360 299L315 299L315 359L270 359L270 395L225 395L225 335L180 335L180 299L135 299L135 335L90 335L90 263L45 263L45 227L0 227Z" fill="#003d50"></path><path d="M0 601L45 601L45 601L90 601L90 601L135 601L135 601L180 601L180 601L225 601L225 601L270 601L270 601L315 601L315 601L360 601L360 601L405 601L405 601L450 601L450 601L495 601L495 601L540 601L540 601L585 601L585 601L630 601L630 601L675 601L675 601L720 601L720 601L765 601L765 601L810 601L810 601L855 601L855 601L900 601L900 601L900 509L900 485L855 485L855 491L810 491L810 527L765 527L765 533L720 533L720 521L675 521L675 491L630 491L630 557L585 557L585 521L540 521L540 503L495 503L495 485L450 485L450 527L405 527L405 473L360 473L360 473L315 473L315 563L270 563L270 479L225 479L225 539L180 539L180 491L135 491L135 473L90 473L90 539L45 539L45 509L0 509Z" fill="#001529"></path></svg>